SplineFontDB: 3.0
FontName: Gorton-Normal-180
FullName: Gorton Normal 180
FamilyName: Gorton
Weight: 180
Copyright: Copyright (c) 2019 Eugene Dorr (gene.dorr@gmail.com)\n\nThis Font Software is licensed under the SIL Open Font License, Version 1.1.
UComments: "2019-1-12: Created with FontForge (http://fontforge.org)"
Version: 001.000
ItalicAngle: 0
UnderlinePosition: -100
UnderlineWidth: 50
Ascent: 800
Descent: 200
InvalidEm: 0
LayerCount: 2
Layer: 0 0 "Back" 1
Layer: 1 0 "Fore" 0
XUID: [1021 565 -521583808 16510]
StyleMap: 0x0000
FSType: 0
OS2Version: 0
OS2_WeightWidthSlopeOnly: 0
OS2_UseTypoMetrics: 1
CreationTime: 1547329265
ModificationTime: 1548293194
OS2TypoAscent: 0
OS2TypoAOffset: 1
OS2TypoDescent: 0
OS2TypoDOffset: 1
OS2TypoLinegap: 90
OS2WinAscent: 0
OS2WinAOffset: 1
OS2WinDescent: 0
OS2WinDOffset: 1
HheadAscent: 0
HheadAOffset: 1
HheadDescent: 0
HheadDOffset: 1
OS2Vendor: 'PfEd'
MarkAttachClasses: 1
DEI: 91125
Encoding: ISO8859-1
UnicodeInterp: none
NameList: AGL For New Fonts
DisplaySize: -48
AntiAlias: 1
FitToEm: 0
WinInfo: 64 16 7
BeginPrivate: 0
EndPrivate
BeginChars: 256 92

StartChar: three
Encoding: 51 51 0
Width: 911
VWidth: 0
Flags: W
HStem: -90 180<366.329 554.243> 710 180<142.849 508.644>
VStem: 641.9 180.009<178.39 338.759>
LayerCount: 2
Fore
SplineSet
109.813476562 800 m 0
 109.813476562 849.021484375 150.791015625 890 199.813476562 890 c 2
 633.813476562 890 l 2
 680.330078125 890 720.073242188 852.98828125 723.55859375 806.766601562 c 0
 723.94140625 801.681640625 724.129882812 796.565429688 724.129882812 791.423828125 c 0
 724.129882812 714.31640625 681.876953125 631.583007812 623.416015625 563.805664062 c 1
 741.48046875 514.848632812 817.909179688 397.801757812 821.778320312 258.499023438 c 0
 821.866210938 255.344726562 821.909179688 252.203125 821.909179688 249.075195312 c 0
 821.909179688 53.625 652.137695312 -90 469.813476562 -90 c 0
 294.837890625 -90 142.392578125 11.3779296875 93.216796875 187.83984375 c 0
 91.037109375 195.659179688 90 203.56640625 90 211.379882812 c 0
 90 250.75390625 116.349609375 287.715820312 155.752929688 298.696289062 c 0
 163.571289062 300.875 171.479492188 301.913085938 179.29296875 301.913085938 c 0
 218.666992188 301.913085938 255.62890625 275.563476562 266.609375 236.16015625 c 0
 293.233398438 140.622070312 363.924804688 90 469.813476562 90 c 0
 563.178710938 90 641.900390625 165.033203125 641.900390625 249.709960938 c 0
 641.900390625 352.825195312 576.794921875 408 499.813476562 408 c 0
 479.08984375 408 468.776367188 406.44140625 465.25390625 405.677734375 c 0
 463.393554688 404.520507812 446.458007812 392.803710938 424.280273438 385.979492188 c 0
 416.0703125 383.453125 407.491210938 382.22265625 398.875 382.22265625 c 0
 369.69140625 382.22265625 340.083984375 396.34375 322.928710938 422.077148438 c 2
 314.928710938 434.077148438 l 2
 305.055664062 448.885742188 300.30078125 466.06640625 300.30078125 483.225585938 c 0
 300.30078125 514.381835938 315.977539062 545.465820312 345.16015625 562.141601562 c 0
 406.147460938 596.991210938 426.9921875 619.592773438 477.639648438 671.100585938 c 0
 488.818359375 682.470703125 498.83203125 695.059570312 508.643554688 710 c 1
 199.813476562 710 l 2
 150.791015625 710 109.813476562 750.978515625 109.813476562 800 c 0
EndSplineSet
Validated: 1
EndChar

StartChar: one
Encoding: 49 49 1
Width: 360
VWidth: 0
Flags: W
HStem: -90 21G<155.597 204.618> -90 21G<155.597 204.618> 870 20G<155.489 204.511> 870 20G<155.489 204.511>
VStem: 90.0996 180<-56.9604 856.964>
LayerCount: 2
Fore
SplineSet
180 890 m 0xa8
 229.021484375 890 270 849.021484375 270 800 c 0
 270 533.322265625 270.049804688 266.65625 270.099609375 0.0009765625 c 0
 270.099609375 -49.01953125 229.134765625 -89.9912109375 180.100585938 -90 c 0
 131.09375 -90 90.1181640625 -49.0439453125 90.099609375 -0.0341796875 c 0
 90 266.701171875 90 533.333007812 90 800 c 0
 90 849.021484375 130.978515625 890 180 890 c 0xa8
EndSplineSet
Validated: 1
EndChar

StartChar: two
Encoding: 50 50 2
Width: 888
VWidth: 0
Flags: W
HStem: -90 180<279.123 764.964> 710 180<336.557 497.676>
VStem: 90.0996 180<513.105 643.553> 564 180<537.256 652.454>
LayerCount: 2
Fore
SplineSet
798 0 m 0
 798 -49.021484375 757.021484375 -90 708 -90 c 2
 180 -90 l 2
 125.522460938 -90 90 -38.6279296875 90 0 c 0
 90 258.993164062 239.265625 353.98828125 386.739257812 439.791015625 c 0
 520.037109375 517.345703125 564 524.836914062 564 600 c 0
 564 641.06640625 512.192382812 710 416 710 c 0
 333.607421875 710 270.099609375 649.361328125 270.099609375 570.180664062 c 0
 270.118164062 521.053710938 229.252929688 480.018554688 180.1015625 480 c 0
 130.98046875 480 90.099609375 521.009765625 90.099609375 570.186523438 c 0
 90.099609375 754.8203125 242.01171875 890 416 890 c 0
 591.807617188 890 744 762.93359375 744 600 c 0
 744 395.133789062 563.962890625 334.654296875 477.260742188 284.208984375 c 0
 353.385742188 212.135742188 300.500976562 179.490234375 279.123046875 90 c 1
 708 90 l 2
 757.021484375 90 798 49.021484375 798 0 c 0
EndSplineSet
Validated: 33
EndChar

StartChar: four
Encoding: 52 52 3
Width: 954
VWidth: 0
Flags: W
HStem: -90 21G<593.489 642.511> -90 21G<593.489 642.511> 192 180<321.24 528 708 830.964> 870 20G<536.676 645.239> 870 20G<536.676 645.239>
VStem: 528 180<-56.9642 192 372 629.053>
LayerCount: 2
Fore
SplineSet
528 372 m 1x24
 528 629.052734375 l 1
 321.240234375 372 l 1
 528 372 l 1x24
708 192 m 1
 708 0 l 2
 708 -49.021484375 667.021484375 -90 618 -90 c 0
 568.978515625 -90 528 -49.021484375 528 0 c 2
 528 192 l 1
 180 192 l 2
 125.522460938 192 90 243.372070312 90 282 c 2
 90 297 l 1
 90 340 l 2
 90 360.569335938 98.181640625 381.875976562 109.87109375 396.408203125 c 2
 479.87109375 856.408203125 l 2
 496.872070312 877.544921875 523.352539062 890 550 890 c 2
 595 890 l 1
 618 890 l 2xb4
 672.477539062 890 708 838.627929688 708 800 c 2
 708 372 l 1
 774 372 l 2
 823.021484375 372 864 331.021484375 864 282 c 0
 864 232.978515625 823.021484375 192 774 192 c 2
 708 192 l 1
EndSplineSet
Validated: 1
EndChar

StartChar: zero
Encoding: 48 48 4
Width: 938
VWidth: 0
Flags: W
HStem: -90 180<396.578 542.876> 711 180<397.498 543.749>
VStem: 90 180<256.242 543.921> 668 180<256.65 543.53>
LayerCount: 2
Fore
SplineSet
471 891 m 0
 744.126953125 891 848 605.713867188 848 400 c 0
 848 193.642578125 742.625976562 -90 470 -90 c 0
 197.047851562 -90 90 192.001953125 90 400 c 0
 90 608.21875 198.021484375 891 471 891 c 0
471 711 m 0
 357.978515625 711 270 577.78125 270 400 c 0
 270 221.998046875 356.952148438 90 470 90 c 0
 581.374023438 90 668 222.357421875 668 400 c 0
 668 578.286132812 581.873046875 711 471 711 c 0
EndSplineSet
Validated: 1
EndChar

StartChar: five
Encoding: 53 53 5
Width: 899
VWidth: 0
Flags: W
HStem: -90 180<344.412 533.713> 462.061 180.003<367.658 535.631> 710 180<354.989 706.724>
VStem: 629.912 180<192.768 358.939>
LayerCount: 2
Fore
SplineSet
137.650390625 231.541015625 m 0
 150.756835938 238.48046875 164.96875 241.759765625 179.051757812 241.759765625 c 0
 211.518554688 241.759765625 243.303710938 224.327148438 259.30078125 194.110351562 c 0
 295.870117188 125.03515625 350.079101562 90 469.759765625 90 c 0
 543.524414062 90 629.912109375 175.7890625 629.912109375 276.971679688 c 0
 629.912109375 278.961914062 629.87890625 280.958984375 629.811523438 282.9609375 c 0
 626.380859375 384.506835938 547.831054688 462.060546875 455.319335938 462.060546875 c 0
 454.120117188 462.060546875 452.918945312 462.047851562 451.715820312 462.021484375 c 0
 388.455078125 460.646484375 359.091796875 442.462890625 290.575195312 379.65625 c 0
 273.612304688 364.106445312 251.661132812 356.295898438 229.705078125 356.295898438 c 0
 209.1640625 356.295898438 188.618164062 363.130859375 172.143554688 376.860351562 c 2
 160.143554688 386.860351562 l 2
 138.650390625 404.770507812 127.987304688 433.211914062 127.987304688 458.040039062 c 0
 127.987304688 462.850585938 128.387695312 467.526367188 129.1875 471.963867188 c 2
 191.1875 815.963867188 l 2
 199.189453125 860.365234375 241.279296875 890 279.759765625 890 c 2
 649.759765625 890 l 2
 698.78125 890 739.759765625 849.021484375 739.759765625 800 c 0
 739.759765625 750.978515625 698.78125 710 649.759765625 710 c 2
 354.989257812 710 l 1
 339.434570312 623.700195312 l 1
 371.217773438 634.4296875 409.547851562 641.147460938 447.803710938 641.978515625 c 0
 450.413085938 642.03515625 453.015625 642.063476562 455.609375 642.063476562 c 0
 652.397460938 642.063476562 803.268554688 479.665039062 809.708984375 289.0390625 c 0
 809.844726562 285.01171875 809.912109375 280.987304688 809.912109375 276.966796875 c 0
 809.912109375 89.056640625 662.421875 -90 469.759765625 -90 c 0
 305.440429688 -90 171.649414062 -25.03515625 100.21875 109.889648438 c 0
 93.2802734375 122.997070312 90 137.208984375 90 151.291992188 c 0
 90 183.758789062 107.432617188 215.54296875 137.650390625 231.541015625 c 0
EndSplineSet
Validated: 1
EndChar

StartChar: six
Encoding: 54 54 6
Width: 896
VWidth: 0
Flags: W
HStem: -90 180<392.729 563.449> 360.134 179.991<374.265 527.578> 710 180<411.673 560.264>
VStem: 626.021 180.006<151.505 275.092>
LayerCount: 2
Fore
SplineSet
301.219726562 218.739257812 m 1
 337.186523438 131.981445312 393.185546875 90 482 90 c 0
 568.78515625 90 626.021484375 147.03515625 626.021484375 218.537109375 c 0
 626.021484375 272.493164062 550.640625 357.274414062 457.272460938 360.041015625 c 0
 455.282226562 360.103515625 453.305664062 360.133789062 451.344726562 360.133789062 c 0
 376.877929688 360.133789062 323.270507812 315.564453125 301.219726562 218.739257812 c 1
281.094726562 492.3203125 m 1
 330.8671875 523.407226562 389.986328125 540.125 451.993164062 540.125 c 0
 455.561523438 540.125 459.140625 540.0703125 462.727539062 539.958984375 c 0
 637.22265625 534.788085938 806.02734375 395.065429688 806.02734375 219.193359375 c 0
 806.02734375 38.3271484375 655.594726562 -90 482 -90 c 0
 239.525390625 -90 108.70703125 110.793945312 92.0712890625 341.40234375 c 0
 90.6865234375 360.598632812 90 380.142578125 90 400 c 0
 90 600.009765625 211.092773438 890 486 890 c 0
 660.559570312 890 743.166992188 762.483398438 783.149414062 689.025390625 c 0
 790.415039062 675.67578125 793.8515625 661.123046875 793.8515625 646.696289062 c 0
 793.8515625 614.592773438 776.833007812 583.120117188 747.125 566.950195312 c 0
 733.776367188 559.684570312 719.22265625 556.248046875 704.796875 556.248046875 c 0
 672.693359375 556.248046875 641.219726562 573.266601562 625.05078125 602.974609375 c 0
 588.833007812 669.516601562 559.440429688 710 486 710 c 0
 391.74609375 710 311.741210938 621.952148438 281.094726562 492.3203125 c 1
EndSplineSet
Validated: 1
EndChar

StartChar: seven
Encoding: 55 55 7
Width: 882
VWidth: 0
Flags: W
HStem: -89.998 21G<377.41 401.733> -89.998 21G<377.41 401.733> 710 180<123.036 563.646>
VStem: 288.102 179.922<-57.0265 200.808>
LayerCount: 2
Fore
SplineSet
90 800 m 0xb0
 90 849.021484375 130.978515625 890 180 890 c 2
 702 890 l 2
 756.477539062 890 792 838.627929688 792 800 c 2
 792 781 l 1
 792 722 l 2
 792 697.682617188 779.657226562 672.377929688 765.639648438 658.360351562 c 0
 664.125 556.845703125 611.729492188 505.715820312 560.731445312 402.219726562 c 0
 497.767578125 274.439453125 475.668945312 182.098632812 468.0234375 -3.7001953125 c 0
 466.05859375 -51.47265625 425.45703125 -89.998046875 378.009765625 -89.998046875 c 0
 376.810546875 -89.998046875 375.607421875 -89.9736328125 374.400390625 -89.923828125 c 0
 326.626953125 -87.9580078125 288.1015625 -47.3564453125 288.1015625 0.0908203125 c 0
 288.1015625 196.87890625 327.932617188 337.009765625 399.268554688 481.780273438 c 0
 446.174804688 576.970703125 499.083007812 642.479492188 563.646484375 710 c 1
 180 710 l 2
 130.978515625 710 90 750.978515625 90 800 c 0xb0
EndSplineSet
Validated: 1
EndChar

StartChar: nine
Encoding: 57 57 9
Width: 902
VWidth: 0
Flags: W
HStem: -90 180<331.275 494.777> 264 180<344.757 542.093> 710 180<327.89 511.43>
VStem: 90 180<521.091 656.718> 108.219 175.293<134.703 203.434>
LayerCount: 2
Fore
SplineSet
600.288085938 579.375976562 m 1xf0
 564.041015625 666.72265625 508.260742188 710 424 710 c 0
 317.920898438 710 270 657.294921875 270 596 c 0
 270 515.489257812 334.763671875 444 422 444 c 0
 539.325195312 444 564.911132812 454.33984375 600.288085938 579.375976562 c 1xf0
623.6328125 308.551757812 m 1
 562.206054688 272.94921875 493.405273438 264 422 264 c 0
 230.9765625 264 90 420.510742188 90 596 c 0xf0
 90 782.90625 254.079101562 890 424 890 c 0
 667.176757812 890 792.099609375 679.629882812 809.5703125 461.620117188 c 0
 811.194335938 441.361328125 812 420.80078125 812 400 c 0
 812 179.2265625 695.559570312 -90 400 -90 c 0
 262.999023438 -90 152.063476562 -0.9189453125 112.688476562 117.630859375 c 0
 109.65625 126.758789062 108.21875 136.090820312 108.21875 145.311523438 c 0
 108.21875 183.083984375 132.336914062 218.991210938 169.731445312 231.412109375 c 0
 178.859375 234.443359375 188.190429688 235.880859375 197.411132812 235.880859375 c 0
 235.18359375 235.880859375 271.091796875 211.763671875 283.51171875 174.369140625 c 0xe8
 299.936523438 124.918945312 343.786132812 90 400 90 c 0
 527.7265625 90 598.098632812 174.671875 623.6328125 308.551757812 c 1
EndSplineSet
Validated: 1
EndChar

StartChar: eight
Encoding: 56 56 10
Width: 886
VWidth: 0
Flags: W
HStem: -90 180<351.803 546.655> 710 180<352.384 549.874>
VStem: 90 180<160.038 297.32> 117.974 179.951<567.505 658.63> 590 180<549.573 673.661> 616.077 179.95<151.323 293.83>
LayerCount: 2
Fore
SplineSet
493.056640625 517.528320312 m 1xd8
 500.612304688 522.39453125 508.956054688 526.186523438 517.5234375 528.607421875 c 0
 582.198242188 546.885742188 590 557.036132812 590 616 c 0
 590 667.61328125 560.407226562 710 448 710 c 0
 352.013671875 710 298.745117188 660.47265625 297.986328125 616.448242188 c 0
 297.948242188 614.236328125 297.924804688 612.133789062 297.924804688 610.129882812 c 0
 297.924804688 579.645507812 303.456054688 572.241210938 348.443359375 553.815429688 c 0
 374.279296875 543.232421875 412.217773438 533.3515625 458.951171875 524.389648438 c 0
 470.504882812 522.173828125 481.959960938 519.876953125 493.056640625 517.528320312 c 1xd8
704.759765625 433.192382812 m 1
 767.731445312 382.0703125 796.02734375 305.055664062 796.02734375 221.927734375 c 0
 796.02734375 220.198242188 796.015625 218.466796875 795.991210938 216.732421875 c 0
 793.4296875 34.81640625 639.418945312 -90 450 -90 c 0
 255.02734375 -90 90 41.5673828125 90 226 c 0xe4
 90 320.194335938 130.201171875 396.006835938 186.546875 445.591796875 c 1
 141.721679688 488.583984375 117.973632812 549.776367188 117.973632812 614.916992188 c 0
 117.973632812 810.407226562 309.220703125 890 448 890 c 0
 615.592773438 890 770 794.8046875 770 616 c 0
 770 548.196289062 750.696289062 482.323242188 704.759765625 433.192382812 c 1
386.448242188 355.548828125 m 0
 384.377929688 354.528320312 382.083007812 353.479492188 380.143554688 352.6875 c 0
 301.721679688 320.641601562 270 294.75 270 226 c 0
 270 162.432617188 328.97265625 90 450 90 c 0
 564.581054688 90 615.04296875 150.697265625 616.008789062 219.267578125 c 0
 616.052734375 222.379882812 616.077148438 225.365234375 616.077148438 228.229492188 c 0
 616.077148438 285.634765625 606.237304688 294.666015625 545.060546875 317.228515625 c 0
 516.213867188 327.8671875 475.729492188 337.891601562 425.048828125 347.610351562 c 0
 412.311523438 350.053710938 399.068359375 352.763671875 386.448242188 355.548828125 c 0
EndSplineSet
Validated: 1
EndChar

StartChar: plus
Encoding: 43 43 11
Width: 910
VWidth: 0
Flags: WO
HStem: 302 180<123.036 368 548 786.964>
VStem: 368 180<59.0358 302 482 734.964>
LayerCount: 2
Fore
SplineSet
458 768 m 0
 507.021484375 768 548 727.021484375 548 678 c 2
 548 482 l 1
 730 482 l 2
 779.021484375 482 820 441.021484375 820 392 c 0
 820 342.978515625 779.021484375 302 730 302 c 2
 548 302 l 1
 548 116 l 2
 548 66.978515625 507.021484375 26 458 26 c 0
 408.978515625 26 368 66.978515625 368 116 c 2
 368 302 l 1
 180 302 l 2
 130.978515625 302 90 342.978515625 90 392 c 0
 90 441.021484375 130.978515625 482 180 482 c 2
 368 482 l 1
 368 678 l 2
 368 727.021484375 408.978515625 768 458 768 c 0
EndSplineSet
Validated: 1
EndChar

StartChar: hyphen
Encoding: 45 45 12
Width: 910
VWidth: 0
Flags: W
HStem: 302 180<123.036 786.964>
LayerCount: 2
Fore
SplineSet
90 392 m 0
 90 441.021484375 130.978515625 482 180 482 c 2
 730 482 l 2
 779.021484375 482 820 441.021484375 820 392 c 0
 820 342.978515625 779.021484375 302 730 302 c 2
 180 302 l 2
 130.978515625 302 90 342.978515625 90 392 c 0
EndSplineSet
Validated: 1
EndChar

StartChar: A
Encoding: 65 65 13
Width: 937
VWidth: 0
Flags: W
HStem: -89.8779 21G<174.522 198.012 739.745 763.235> -89.8779 21G<174.522 198.012 739.745 763.235> 184 180<397.225 540.531> 870 20G<431.931 508.857> 870 20G<431.931 508.857>
LayerCount: 2
Fore
SplineSet
151.194335938 -85.306640625 m 0xb0
 113.954101562 -72.7841796875 90 -36.9599609375 90 0.693359375 c 0
 90 10.0205078125 91.4697265625 19.458984375 94.5712890625 28.6845703125 c 2
 363.571289062 828.684570312 l 2
 376.306640625 866.55859375 414.983398438 890 448.877929688 890 c 2
 468.877929688 890 l 1
 488.877929688 890 l 2
 528.836914062 890 563.381835938 860.811523438 574.184570312 828.684570312 c 2
 843.184570312 28.6845703125 l 2
 846.287109375 19.458984375 847.756835938 10.0205078125 847.756835938 0.693359375 c 0
 847.756835938 -36.9599609375 823.802734375 -72.7841796875 786.5625 -85.306640625 c 0
 777.337890625 -88.408203125 767.8984375 -89.8779296875 758.571289062 -89.8779296875 c 0
 720.918945312 -89.8779296875 685.09375 -65.9248046875 672.571289062 -28.6845703125 c 2
 601.056640625 184 l 1
 336.700195312 184 l 1
 265.184570312 -28.6845703125 l 2
 252.663085938 -65.9248046875 216.837890625 -89.8779296875 179.185546875 -89.8779296875 c 0
 169.858398438 -89.8779296875 160.418945312 -88.408203125 151.194335938 -85.306640625 c 0xb0
540.53125 364 m 1
 468.877929688 577.095703125 l 1
 397.224609375 364 l 1
 540.53125 364 l 1
EndSplineSet
Validated: 1
EndChar

StartChar: B
Encoding: 66 66 14
Width: 877
VWidth: 0
Flags: W
HStem: -90 180<270 563.692> 338 180<270 531.184> 710 180<270 543.652>
VStem: 90 180<90 338 518 710> 579 180<563.358 679.19> 607 180<128.138 281.578>
LayerCount: 2
Fore
SplineSet
270 518 m 1xf8
 468.88671875 518 l 2
 482.171875 518.405273438 498.012695312 522.0703125 513.390625 529.1953125 c 0
 554.876953125 548.416015625 579 583.845703125 579 616 c 0
 579 670.608398438 548.115234375 710 470 710 c 2
 270 710 l 1
 270 518 l 1xf8
270 338 m 1
 270 90 l 1
 497 90 l 2
 572.112304688 90 607 134.120117188 607 212 c 0xf4
 607 281.796875 553.635742188 338.020507812 473.4765625 338.020507812 c 0
 472.586914062 338.020507812 471.694335938 338.013671875 470.797851562 338 c 2
 270 338 l 1
687.583984375 437.60546875 m 1
 749.240234375 381.572265625 787 300.473632812 787 212 c 0xf4
 787 61.8798828125 685.887695312 -90 497 -90 c 2
 180 -90 l 2
 141.372070312 -90 90 -54.4775390625 90 0 c 2
 90 428 l 1
 90 800 l 2
 90 838.627929688 125.522460938 890 180 890 c 2
 470 890 l 2
 633.884765625 890 759 773.391601562 759 616 c 0xf8
 759 545.145507812 728.962890625 482.993164062 687.583984375 437.60546875 c 1
EndSplineSet
Validated: 1
EndChar

StartChar: C
Encoding: 67 67 15
Width: 901
VWidth: 0
Flags: W
HStem: -90 180<396.579 554.636> 708 180<396.867 549.735>
VStem: 90 180<256.243 542.99>
LayerCount: 2
Fore
SplineSet
721.515625 484.616210938 m 0
 718.083007812 484.212890625 714.666992188 484.015625 711.278320312 484.015625 c 0
 666.61328125 484.015625 626.940429688 518.231445312 621.616210938 563.484375 c 0
 610.396484375 658.850585938 551.643554688 708 470 708 c 0
 357.59765625 708 270 576.375 270 400 c 0
 270 222.008789062 356.961914062 90 470 90 c 0
 558.411132812 90 617.920898438 138.666015625 631.731445312 254.641601562 c 0
 637.114257812 299.845703125 676.767578125 333.983398438 721.381835938 333.983398438 c 0
 724.810546875 333.983398438 728.268554688 333.782226562 731.7421875 333.368164062 c 0
 776.946289062 327.985351562 811.083984375 288.33203125 811.083984375 243.717773438 c 0
 811.083984375 240.2890625 810.881835938 236.83203125 810.46875 233.358398438 c 0
 788.079101562 45.333984375 655.588867188 -90 470 -90 c 0
 197.038085938 -90 90 191.991210938 90 400 c 0
 90 607.625 198.40234375 888 470 888 c 0
 644.356445312 888 779.603515625 761.149414062 800.383789062 584.515625 c 0
 800.787109375 581.083007812 800.984375 577.666992188 800.984375 574.278320312 c 0
 800.984375 529.61328125 766.76953125 489.940429688 721.515625 484.616210938 c 0
EndSplineSet
Validated: 1
EndChar

StartChar: D
Encoding: 68 68 16
Width: 883
VWidth: 0
Flags: W
HStem: -90 180<270 478.18> 710 180<270 471.088>
VStem: 90 180<90 710> 613.531 180<239.308 542.853>
LayerCount: 2
Fore
SplineSet
180 890 m 2
 365.53125 890 l 2
 673.088867188 890 793.53125 627.2265625 793.53125 400 c 0
 793.53125 177.55859375 697.405273438 -90 364 -90 c 2
 180 -90 l 2
 125.522460938 -90 90 -38.6279296875 90 0 c 2
 90 800 l 2
 90 854.477539062 141.372070312 890 180 890 c 2
270 710 m 1
 270 90 l 1
 364 90 l 2
 561.657226562 90 613.53125 212.44140625 613.53125 400 c 0
 613.53125 580.7734375 537.973632812 710 365.53125 710 c 2
 270 710 l 1
EndSplineSet
Validated: 1
EndChar

StartChar: E
Encoding: 69 69 17
Width: 877
VWidth: 0
Flags: W
HStem: -90 180<270 754.495> 330 180<270 582.495> 710 180<270 724.495>
VStem: 90 180<90 330 510 710>
LayerCount: 2
Fore
SplineSet
757.53125 800 m 0
 757.53125 750.978515625 716.552734375 710 667.53125 710 c 2
 270 710 l 1
 270 510 l 1
 525.53125 510 l 2
 574.552734375 510 615.53125 469.021484375 615.53125 420 c 0
 615.53125 370.978515625 574.552734375 330 525.53125 330 c 2
 270 330 l 1
 270 90 l 1
 697.53125 90 l 2
 746.552734375 90 787.53125 49.021484375 787.53125 0 c 0
 787.53125 -49.021484375 746.552734375 -90 697.53125 -90 c 2
 180 -90 l 2
 141.372070312 -90 90 -54.4775390625 90 0 c 2
 90 800 l 2
 90 838.627929688 125.522460938 890 180 890 c 2
 667.53125 890 l 2
 716.552734375 890 757.53125 849.021484375 757.53125 800 c 0
EndSplineSet
Validated: 1
EndChar

StartChar: F
Encoding: 70 70 18
Width: 843
VWidth: 0
Flags: W
HStem: -90 21G<155.489 204.511> -90 21G<155.489 204.511> 328 180<270 574.495> 710 180<270 720.495>
VStem: 90 180<-56.9642 328 508 710>
LayerCount: 2
Fore
SplineSet
753.53125 800 m 0xb8
 753.53125 750.978515625 712.552734375 710 663.53125 710 c 2
 270 710 l 1
 270 508 l 1
 517.53125 508 l 2
 566.552734375 508 607.53125 467.021484375 607.53125 418 c 0
 607.53125 368.978515625 566.552734375 328 517.53125 328 c 2
 270 328 l 1
 270 0 l 2
 270 -49.021484375 229.021484375 -90 180 -90 c 0
 130.978515625 -90 90 -49.021484375 90 0 c 2
 90 800 l 2
 90 838.627929688 125.522460938 890 180 890 c 2
 663.53125 890 l 2
 712.552734375 890 753.53125 849.021484375 753.53125 800 c 0xb8
EndSplineSet
Validated: 1
EndChar

StartChar: G
Encoding: 71 71 19
Width: 871
VWidth: 0
Flags: W
HStem: -90 180<392.314 561.709> 242 180<434.569 601.533> 710 180<388.829 530.029>
VStem: 90.002 180.001<258.187 549.595> 601.533 180<127.893 242 540.92 642.393>
LayerCount: 2
Fore
SplineSet
699.831054688 508.383789062 m 0
 697.122070312 508.1328125 694.426757812 508.009765625 691.75 508.009765625 c 0
 646.193359375 508.009765625 606.185546875 543.598632812 601.916992188 589.702148438 c 0
 596.736328125 645.646484375 532.1875 710 453.533203125 710 c 0
 349.18359375 710 269.555664062 580.349609375 270.002929688 400.000976562 c 0
 269.565429688 222.044921875 355.09765625 90 464.533203125 90 c 0
 540.310546875 90 567.97265625 102.6171875 601.533203125 158.780273438 c 1
 601.533203125 242 l 1
 491.533203125 242 l 2
 442.51171875 242 401.533203125 282.978515625 401.533203125 332 c 0
 401.533203125 381.021484375 442.51171875 422 491.533203125 422 c 2
 691.533203125 422 l 2
 730.161132812 422 781.533203125 386.477539062 781.533203125 332 c 2
 781.533203125 136 l 2
 781.533203125 123.01171875 778.25 108.186523438 772.032226562 95.7509765625 c 0
 705.010742188 -38.2919921875 590.314453125 -90 464.533203125 -90 c 0
 191.969726562 -90 89.5009765625 195.955078125 90.001953125 399.999023438 c 0
 89.51171875 597.650390625 179.883789062 890 453.533203125 890 c 0
 618.879882812 890 766.330078125 766.353515625 781.150390625 606.297851562 c 0
 781.401367188 603.588867188 781.5234375 600.892578125 781.5234375 598.215820312 c 0
 781.5234375 552.66015625 745.935546875 512.65234375 699.831054688 508.383789062 c 0
EndSplineSet
Validated: 33
EndChar

StartChar: H
Encoding: 72 72 20
Width: 873
VWidth: 0
Flags: W
HStem: -90 21G<155.489 204.511 669.021 718.042> -90 21G<155.489 204.511 669.021 718.042> 330 180<270 603.531> 870 20G<155.489 204.511 669.021 718.042> 870 20G<155.489 204.511 669.021 718.042>
VStem: 90 180<-56.9642 330 510 856.964> 603.531 180<-56.9642 330 510 856.964>
LayerCount: 2
Fore
SplineSet
180 890 m 0xb6
 229.021484375 890 270 849.021484375 270 800 c 2
 270 510 l 1
 603.53125 510 l 1
 603.53125 800 l 2
 603.53125 849.021484375 644.509765625 890 693.53125 890 c 0
 742.552734375 890 783.53125 849.021484375 783.53125 800 c 2
 783.53125 0 l 2
 783.53125 -49.021484375 742.552734375 -90 693.53125 -90 c 0
 644.509765625 -90 603.53125 -49.021484375 603.53125 0 c 2
 603.53125 330 l 1
 270 330 l 1
 270 0 l 2
 270 -49.021484375 229.021484375 -90 180 -90 c 0
 130.978515625 -90 90 -49.021484375 90 0 c 2
 90 420 l 1
 90 800 l 2
 90 849.021484375 130.978515625 890 180 890 c 0xb6
EndSplineSet
Validated: 1
EndChar

StartChar: I
Encoding: 73 73 21
Width: 360
VWidth: 0
Flags: W
HStem: -90 21G<155.597 204.618> -90 21G<155.597 204.618> 870 20G<155.489 204.511> 870 20G<155.489 204.511>
VStem: 90.0996 180<-56.9604 856.964>
LayerCount: 2
Fore
SplineSet
180 890 m 0xa8
 229.021484375 890 270 849.021484375 270 800 c 0
 270 533.322265625 270.049804688 266.65625 270.099609375 0.0009765625 c 0
 270.099609375 -49.01953125 229.134765625 -89.9912109375 180.100585938 -90 c 0
 131.09375 -90 90.1181640625 -49.0439453125 90.099609375 -0.0341796875 c 0
 90 266.701171875 90 533.333007812 90 800 c 0
 90 849.021484375 130.978515625 890 180 890 c 0xa8
EndSplineSet
Validated: 1
EndChar

StartChar: O
Encoding: 79 79 22
Width: 938
VWidth: 0
Flags: W
HStem: -90 180<396.578 542.876> 711 180<397.498 543.749>
VStem: 90 180<256.242 543.921> 668 180<256.65 543.53>
LayerCount: 2
Fore
SplineSet
471 891 m 0
 744.126953125 891 848 605.713867188 848 400 c 0
 848 193.642578125 742.625976562 -90 470 -90 c 0
 197.047851562 -90 90 192.001953125 90 400 c 0
 90 608.21875 198.021484375 891 471 891 c 0
471 711 m 0
 357.978515625 711 270 577.78125 270 400 c 0
 270 221.998046875 356.952148438 90 470 90 c 0
 581.374023438 90 668 222.357421875 668 400 c 0
 668 578.286132812 581.873046875 711 471 711 c 0
EndSplineSet
Validated: 1
EndChar

StartChar: Q
Encoding: 81 81 23
Width: 1008
VWidth: 0
Flags: W
HStem: -90 21G<333.524 489.74> -90 21G<333.524 489.74> 711 180<397.498 543.749>
VStem: 90 180<256.373 543.921> 668 180<254.726 543.53>
LayerCount: 2
Fore
SplineSet
471 891 m 0xb8
 744.126953125 891 848 605.713867188 848 400 c 0
 848 282.77734375 813.997070312 140.616210938 734.649414062 39.67578125 c 1
 734.766601562 39.6650390625 734.885742188 39.654296875 735.00390625 39.6435546875 c 0
 739.162109375 39.2724609375 742.637695312 39.1982421875 743.931640625 39.216796875 c 0
 746.887695312 41.8994140625 751.325195312 46.5673828125 757.962890625 55.1318359375 c 0
 775.501953125 77.7626953125 802.409179688 89.662109375 829.479492188 89.662109375 c 0
 848.755859375 89.662109375 868.115234375 83.6279296875 884.231445312 71.1376953125 c 0
 906.862304688 53.5986328125 918.76171875 26.6904296875 918.76171875 -0.37890625 c 0
 918.76171875 -19.65625 912.727539062 -39.015625 900.237304688 -55.1318359375 c 0
 877.473632812 -84.50390625 849.590820312 -113.439453125 809.22265625 -129.099609375 c 0
 786.249023438 -138.01171875 763.610351562 -140.771484375 742.95703125 -140.771484375 c 0
 734.609375 -140.771484375 726.5859375 -140.321289062 718.99609375 -139.643554688 c 0
 654.467773438 -133.881835938 610.025390625 -106.916992188 578.106445312 -73.2509765625 c 1
 545.453125 -84.0517578125 509.48046875 -90 470 -90 c 0
 197.047851562 -90 90 192.001953125 90 400 c 0
 90 608.21875 198.021484375 891 471 891 c 0xb8
471 711 m 0
 357.978515625 711 270 577.78125 270 400 c 0
 270 259.37109375 324.272460938 147.455078125 402.809570312 106.66015625 c 1
 388.670898438 122.603515625 380 143.455078125 380 166.002929688 c 0
 380.037109375 215.739257812 421.720703125 255.240234375 469.349609375 256.000976562 c 2
 469.349609375 256.000976562 471.354492188 256.068359375 474.836914062 256.068359375 c 0
 484.561523438 256.068359375 505.807617188 255.541992188 527.114257812 251.546875 c 0
 558.826171875 245.950195312 584.255859375 234.426757812 586.298828125 233.61328125 c 0
 601.680664062 227.487304688 616.462890625 215.084960938 625.243164062 203.615234375 c 1
 652.130859375 256.229492188 668 323.966796875 668 400 c 1
 668 578.286132812 581.873046875 711 471 711 c 0
EndSplineSet
Validated: 1
EndChar

StartChar: J
Encoding: 74 74 24
Width: 759
VWidth: 0
Flags: W
HStem: -90 180<308.852 457.36> 870 20G<554.92 603.942> 870 20G<554.92 603.942>
VStem: 90 180<130.968 312.888> 489.432 180<124.022 856.964>
LayerCount: 2
Fore
SplineSet
579.431640625 890 m 0xd8
 628.453125 890 669.431640625 849.021484375 669.431640625 800 c 2
 669.431640625 256 l 2
 669.431640625 47.2177734375 565.952148438 -90 383.431640625 -90 c 0
 199.633789062 -90 90 50.0966796875 90 255.72265625 c 0
 90 304.956054688 130.8203125 346 180.000976562 346 c 0
 229.041015625 345.986328125 270 305.018554688 270 255.999023438 c 0
 269.958984375 109.784179688 311.271484375 90 383.431640625 90 c 0
 452.91015625 90 489.431640625 100.782226562 489.431640625 256 c 2
 489.431640625 800 l 2
 489.431640625 849.021484375 530.409179688 890 579.431640625 890 c 0xd8
EndSplineSet
Validated: 33
EndChar

StartChar: K
Encoding: 75 75 25
Width: 863
VWidth: 0
Flags: W
HStem: -90 21.3086G<155.553 204.574 669.604 692.803> -90 21.3086G<155.553 204.574 669.604 692.803> 870 20G<155.553 204.574 663.75 686.905> 870 20G<155.553 204.574 663.75 686.905>
VStem: 90.0635 180<-56.9642 246.349 506.614 856.964>
LayerCount: 2
Fore
SplineSet
180.063476562 890 m 0xa8
 229.084960938 890 270.063476562 849.021484375 270.063476562 800 c 2
 270.063476562 506.614257812 l 1
 610.58984375 862.244140625 l 2
 628.032226562 880.4609375 651.837890625 889.637695312 675.663085938 889.637695312 c 0
 698.146484375 889.637695312 720.6484375 881.465820312 737.838867188 865.004882812 c 0
 756.055664062 847.5625 765.232421875 823.756835938 765.232421875 799.931640625 c 0
 765.232421875 777.448242188 757.059570312 754.946289062 740.599609375 737.755859375 c 2
 478.049804688 463.560546875 l 1
 758.087890625 50.50390625 l 2
 768.373046875 35.3349609375 773.28515625 17.8818359375 773.28515625 0.53515625 c 0
 773.28515625 -28.5166015625 759.504882812 -57.26953125 734.098632812 -74.494140625 c 0
 718.9296875 -84.7783203125 701.4765625 -89.69140625 684.129882812 -89.69140625 c 0
 655.078125 -89.69140625 626.325195312 -75.91015625 609.100585938 -50.50390625 c 2
 350.729492188 330.592773438 l 1
 270.063476562 246.348632812 l 1
 270.063476562 0 l 2
 270.063476562 -49.021484375 229.084960938 -90 180.063476562 -90 c 0
 131.041992188 -90 90.0634765625 -49.021484375 90.0634765625 0 c 2
 90.0634765625 277.619140625 l 2
 89.9208984375 280.58203125 90.0634765625 283.552734375 90.0634765625 286.517578125 c 2
 90.0634765625 800 l 2
 90.0634765625 849.021484375 131.041992188 890 180.063476562 890 c 0xa8
EndSplineSet
Validated: 1
EndChar

StartChar: L
Encoding: 76 76 26
Width: 879
VWidth: 0
Flags: W
HStem: -90 180<270 756.495> 870 20G<155.489 204.511> 870 20G<155.489 204.511>
VStem: 90 180<90 856.964>
LayerCount: 2
Fore
SplineSet
180 890 m 0xd0
 229.021484375 890 270 849.021484375 270 800 c 2
 270 90 l 1
 699.53125 90 l 2
 748.552734375 90 789.53125 49.021484375 789.53125 0 c 0
 789.53125 -49.021484375 748.552734375 -90 699.53125 -90 c 2
 180 -90 l 2
 141.372070312 -90 90 -54.4775390625 90 0 c 2
 90 800 l 2
 90 849.021484375 130.978515625 890 180 890 c 0xd0
EndSplineSet
Validated: 1
EndChar

StartChar: M
Encoding: 77 77 27
Width: 993
VWidth: 0
Flags: W
HStem: -90 21G<155.489 204.511 789.021 838.042> -90 21G<155.489 204.511 789.021 838.042> 870 20G<160.686 241.509 760.977 840.77> 870 20G<160.686 241.509 760.977 840.77>
VStem: 90 180<-56.9642 374.105> 723.531 180<-56.9642 367.005>
LayerCount: 2
Fore
SplineSet
180 -90 m 0xac
 130.978515625 -90 90 -49.021484375 90 0 c 2
 90 800 l 2
 90 854.477539062 141.372070312 890 180 890 c 2
 200.258789062 890 l 1
 221.53125 890 l 2
 261.487304688 890 296.021484375 860.798828125 306.82421875 828.725585938 c 2
 497.33203125 263.063476562 l 1
 692.440429688 829.318359375 l 2
 705.443359375 867.055664062 744.421875 890 777.53125 890 c 2
 795.53125 890 l 1
 813.53125 890 l 2
 868.008789062 890 903.53125 838.627929688 903.53125 800 c 2
 903.53125 0 l 2
 903.53125 -49.021484375 862.552734375 -90 813.53125 -90 c 0
 764.509765625 -90 723.53125 -49.021484375 723.53125 0 c 2
 723.53125 367.004882812 l 1
 596.622070312 -1.318359375 l 2
 585.8359375 -32.6220703125 551.4453125 -62 511.53125 -62 c 2
 496.53125 -62 l 1
 481.53125 -62 l 2
 447.6875 -62 408.991210938 -38.5908203125 396.23828125 -0.7255859375 c 2
 270 374.10546875 l 1
 270 0 l 2
 270 -49.021484375 229.021484375 -90 180 -90 c 0xac
EndSplineSet
Validated: 1
EndChar

StartChar: N
Encoding: 78 78 28
Width: 869
VWidth: 0
Flags: W
HStem: -90 21G<155.489 204.511 640.917 716.733> -90 21G<155.489 204.511 640.917 716.733> 870 20G<160.686 236.385 662.939 711.989> 870 20G<160.686 236.385 662.939 711.989>
VStem: 90 180<-56.9642 519.326> 598.803 180.729<292.16 857.156>
LayerCount: 2
Fore
SplineSet
180 -90 m 0xac
 130.978515625 -90 90 -49.021484375 90 0 c 2
 90 800 l 2
 90 854.477539062 141.372070312 890 180 890 c 2
 196.217773438 890 l 1
 219.53125 890 l 2
 253.239257812 890 284.569335938 868.733398438 298.556640625 843.069335938 c 2
 598.802734375 292.16015625 l 1
 597.53125 801.775390625 l 2
 597.409179688 850.885742188 638.352539062 891.938476562 687.526367188 892 c 0
 736.451171875 892 777.409179688 851.172851562 777.53125 802.224609375 c 2
 779.53125 0.224609375 l 2
 779.627929688 -38.818359375 743.935546875 -90 689.53125 -90 c 2
 674.53125 -90 l 1
 655.53125 -90 l 2
 626.302734375 -90 592.63671875 -72.6669921875 576.505859375 -43.0693359375 c 2
 270 519.326171875 l 1
 270 0 l 2
 270 -49.021484375 229.021484375 -90 180 -90 c 0xac
EndSplineSet
Validated: 33
EndChar

StartChar: P
Encoding: 80 80 29
Width: 843
VWidth: 0
Flags: W
HStem: -90 21G<155.489 204.511> -90 21G<155.489 204.511> 280 180<270 514.497> 710 180<270 526.215>
VStem: 90 180<-56.9642 280 460 710> 573.531 180<516.471 663.023>
LayerCount: 2
Fore
SplineSet
270 460 m 1x3c
 439.53125 460 l 2
 516.625976562 460 573.53125 516.23828125 573.53125 580 c 0
 573.53125 659.983398438 537.51171875 710 439.53125 710 c 2
 270 710 l 1
 270 460 l 1x3c
270 280 m 1
 270 0 l 2
 270 -49.021484375 229.021484375 -90 180 -90 c 0xbc
 130.978515625 -90 90 -49.021484375 90 0 c 2
 90 370 l 1
 90 800 l 2
 90 854.477539062 141.372070312 890 180 890 c 2
 439.53125 890 l 2
 637.55078125 890 753.53125 744.016601562 753.53125 580 c 0
 753.53125 403.76171875 602.436523438 280 439.53125 280 c 2
 270 280 l 1
EndSplineSet
Validated: 1
EndChar

StartChar: R
Encoding: 82 82 30
Width: 883
VWidth: 0
Flags: W
HStem: -90 21G<155.489 204.511 681.201 704.531> -90 21G<155.489 204.511 681.201 704.531> 328 180<270 446.337> 710 180<270 568.338>
VStem: 90 180<-56.9642 328 508 710> 613.531 180<-49.418 -37.8418 559.426 669.883>
LayerCount: 2
Fore
SplineSet
270 508 m 1x3c
 485.53125 508 l 2
 549.736328125 508 613.53125 563.657226562 613.53125 608 c 0
 613.53125 664.057617188 575.702148438 710 485.53125 710 c 2
 270 710 l 1
 270 508 l 1x3c
270 328 m 1
 270 0 l 2
 270 -49.021484375 229.021484375 -90 180 -90 c 0xbc
 130.978515625 -90 90 -49.021484375 90 0 c 2
 90 418 l 1
 90 800 l 2
 90 854.477539062 141.372070312 890 180 890 c 2
 485.53125 890 l 2
 651.360351562 890 793.53125 777.942382812 793.53125 608 c 0
 793.53125 489.014648438 717.935546875 405.7734375 628.73828125 362.499023438 c 1
 779.189453125 37.841796875 l 2
 784.719726562 25.908203125 787.330078125 13.2587890625 787.330078125 0.740234375 c 0
 787.330078125 -33.400390625 767.916992188 -66.576171875 735.373046875 -81.658203125 c 0
 723.439453125 -87.1884765625 710.790039062 -89.798828125 698.271484375 -89.798828125 c 0
 664.130859375 -89.798828125 630.955078125 -70.3857421875 615.873046875 -37.841796875 c 2
 446.336914062 328 l 1
 270 328 l 1
EndSplineSet
Validated: 1
EndChar

StartChar: S
Encoding: 83 83 31
Width: 907
VWidth: 0
Flags: W
HStem: -90 180<341.988 559.26> 330.044 179.912<350.742 557.242> 710 180<349.438 545.485>
VStem: 107.387 180<560.07 658.207> 637.387 180<158.77 265.845>
LayerCount: 2
Fore
SplineSet
714.442382812 529.557617188 m 0
 706.342773438 527.209960938 698.133789062 526.09375 690.0234375 526.09375 c 0
 650.990234375 526.09375 614.244140625 551.9609375 602.944335938 590.944335938 c 0
 573.83984375 691.35546875 534.573242188 710 443.38671875 710 c 0
 345.733398438 710 287.38671875 655.143554688 287.38671875 606 c 0
 287.38671875 561.81640625 338 513.586914062 454.198242188 509.956054688 c 0
 600.274414062 505.390625 817.38671875 429.639648438 817.38671875 216 c 0
 817.38671875 14.0068359375 626.020507812 -90 464.38671875 -90 c 0
 301.046875 -90 134.609375 -17.8359375 91.646484375 200.633789062 c 0
 90.53515625 206.288085938 90 211.942382812 90 217.534179688 c 0
 90 259.51171875 120.142578125 297.9609375 162.588867188 306.30859375 c 0
 168.243164062 307.420898438 173.897460938 307.955078125 179.489257812 307.955078125 c 0
 221.467773438 307.955078125 259.916992188 277.8125 268.263671875 235.366210938 c 0
 292.1640625 113.8359375 347.7265625 90 464.38671875 90 c 0
 568.752929688 90 637.38671875 151.993164062 637.38671875 216 c 0
 637.38671875 270.360351562 569.987304688 326.25 448.575195312 330.043945312 c 0
 308.7734375 334.413085938 107.38671875 404.18359375 107.38671875 606 c 0
 107.38671875 800.856445312 297.040039062 890 443.38671875 890 c 0
 592.200195312 890 724.93359375 816.64453125 775.829101562 641.055664062 c 0
 778.176757812 632.956054688 779.29296875 624.747070312 779.29296875 616.63671875 c 0
 779.29296875 577.603515625 753.42578125 540.857421875 714.442382812 529.557617188 c 0
EndSplineSet
Validated: 1
EndChar

StartChar: T
Encoding: 84 84 32
Width: 953
VWidth: 0
Flags: W
HStem: -90 21G<453.021 502.042> -90 21G<453.021 502.042> 710 180<123.036 387.531 567.531 830.495>
VStem: 387.531 180<-56.9642 710>
LayerCount: 2
Fore
SplineSet
90 800 m 0xb0
 90 849.021484375 130.978515625 890 180 890 c 2
 773.53125 890 l 2
 822.552734375 890 863.53125 849.021484375 863.53125 800 c 0
 863.53125 750.978515625 822.552734375 710 773.53125 710 c 2
 567.53125 710 l 1
 567.53125 0 l 2
 567.53125 -49.021484375 526.552734375 -90 477.53125 -90 c 0
 428.509765625 -90 387.53125 -49.021484375 387.53125 0 c 2
 387.53125 710 l 1
 180 710 l 2
 130.978515625 710 90 750.978515625 90 800 c 0xb0
EndSplineSet
Validated: 1
EndChar

StartChar: U
Encoding: 85 85 33
Width: 876
VWidth: 0
Flags: W
HStem: -90 180<348.651 529.829> 870 20G<160.134 184.608 671.501 720.523> 870 20G<160.134 184.608 671.501 720.523>
VStem: 90 180.027<159.295 851.244> 606.013 180<159.848 856.964>
LayerCount: 2
Fore
SplineSet
185.165039062 889.997070312 m 0xd8
 234.185546875 889.625 274.850585938 848.3359375 274.478515625 799.31640625 c 2
 270.02734375 213.576171875 l 2
 273.329101562 152.84375 341.255859375 90 436.012695312 90 c 0
 538.43359375 90 606.89453125 155.6875 606.012695312 211.286132812 c 2
 606.012695312 800 l 2
 606.012695312 849.021484375 646.990234375 890 696.012695312 890 c 0
 745.034179688 890 786.012695312 849.021484375 786.012695312 800 c 2
 786.012695312 212.69140625 l 2
 788.163085938 16.3134765625 596.31640625 -90 436.012695312 -90 c 0
 271.8046875 -90 96.86328125 20.26953125 90 210.720703125 c 1
 94.4833984375 800.68359375 l 2
 94.8544921875 849.481445312 135.770507812 890 184.497070312 890 c 0
 184.719726562 890 184.942382812 889.999023438 185.165039062 889.997070312 c 0xd8
EndSplineSet
Validated: 33
EndChar

StartChar: V
Encoding: 86 86 34
Width: 932
VWidth: 0
Flags: W
HStem: -90 21G<419.778 499.384> -90 21G<419.778 499.384> 869.887 20G<174.732 198.246 734.363 757.845> 869.887 20G<174.732 198.246 734.363 757.845>
LayerCount: 2
Fore
SplineSet
152.30859375 885.670898438 m 0xa0
 161.193359375 888.530273438 170.255859375 889.88671875 179.208984375 889.88671875 c 0
 217.282226562 889.88671875 253.396484375 865.357421875 265.557617188 827.578125 c 2
 460.296875 222.63671875 l 1
 667.241210938 829.06640625 l 2
 679.885742188 866.119140625 715.609375 889.875 753.116210938 889.875 c 0
 762.573242188 889.875 772.142578125 888.365234375 781.485351562 885.176757812 c 0
 818.538085938 872.533203125 842.293945312 836.809570312 842.293945312 799.301757812 c 0
 842.293945312 789.845703125 840.783203125 780.275390625 837.595703125 770.93359375 c 2
 564.595703125 -29.06640625 l 2
 553.801757812 -60.6962890625 519.350585938 -90 479.41796875 -90 c 2
 458.41796875 -90 l 1
 437.41796875 -90 l 2
 402.138671875 -90 364.009765625 -65.669921875 351.748046875 -27.578125 c 2
 94.216796875 772.421875 l 2
 91.3564453125 781.305664062 90 790.368164062 90 799.322265625 c 0
 90 837.395507812 114.530273438 873.508789062 152.30859375 885.670898438 c 0xa0
EndSplineSet
Validated: 1
EndChar

StartChar: W
Encoding: 87 87 35
Width: 1152
VWidth: 0
Flags: W
HStem: -90 21G<346.662 422.666 740.386 817.739> -90 21G<346.662 422.666 740.386 817.739> 869.938 20G<176.113 199.807 952.375 976.1> 869.938 20G<176.113 199.807 952.375 976.1>
VStem: 90 177.6<790.274 857.653> 884.571 177.843<787.52 857.102>
LayerCount: 2
Fore
SplineSet
159.556640625 887.662109375 m 0xac
 166.177734375 889.201171875 172.827148438 889.938476562 179.3984375 889.938476562 c 0
 220.215820312 889.938476562 258.038085938 861.5078125 267.599609375 820.381835938 c 2
 378.702148438 342.5234375 l 1
 467.244140625 781.783203125 l 2
 475.620117188 823.33984375 513.276367188 854 555.469726562 854 c 2
 573.469726562 854 l 1
 593.469726562 854 l 2
 635.999023438 854 672.81640625 822.459960938 681.393554688 783.21875 c 2
 778.694335938 338.080078125 l 1
 884.571289062 819.337890625 l 2
 893.720703125 860.926757812 931.766601562 889.944335938 972.984375 889.944335938 c 0
 979.215820312 889.944335938 985.51953125 889.28125 991.806640625 887.8984375 c 0
 1033.39648438 878.748046875 1062.4140625 840.703125 1062.4140625 799.485351562 c 0
 1062.4140625 793.25390625 1061.75097656 786.950195312 1060.3671875 780.662109375 c 2
 884.3671875 -19.337890625 l 2
 875.772460938 -58.4052734375 839.0078125 -90 796.469726562 -90 c 2
 778.469726562 -90 l 1
 760.469726562 -90 l 2
 720.301757812 -90 681.626953125 -60.767578125 672.545898438 -19.21875 c 2
 577.266601562 416.665039062 l 1
 489.6953125 -17.783203125 l 2
 481.357421875 -59.1455078125 443.861328125 -90 401.469726562 -90 c 2
 384.2109375 -90 l 1
 365.938476562 -90 l 2
 327.384765625 -90 287.924804688 -61.880859375 278.276367188 -20.3818359375 c 2
 92.2763671875 779.618164062 l 2
 90.7373046875 786.240234375 90 792.888671875 90 799.459960938 c 0
 90 840.27734375 118.4296875 878.099609375 159.556640625 887.662109375 c 0xac
EndSplineSet
Validated: 1
EndChar

StartChar: X
Encoding: 88 88 36
Width: 905
VWidth: 0
Flags: W
HStem: -89.6973 21G<170.632 193.837 712.17 735.372> -89.6973 21G<170.632 193.837 712.17 735.372> 869.693 20G<180.553 203.755 695.088 718.293> 869.693 20G<180.553 203.755 695.088 718.293>
LayerCount: 2
Fore
SplineSet
130.021484375 -75.048828125 m 0xa0
 104.126953125 -57.9091796875 90 -28.83984375 90 0.55859375 c 0
 90 17.5703125 94.73046875 34.6923828125 104.6484375 49.67578125 c 2
 343.021484375 409.802734375 l 1
 114.951171875 749.870117188 l 2
 104.833007812 764.956054688 100.002929688 782.258789062 100.002929688 799.454101562 c 0
 100.002929688 828.663085938 113.940429688 857.559570312 139.567382812 874.74609375 c 0
 154.653320312 884.864257812 171.956054688 889.693359375 189.150390625 889.693359375 c 0
 218.359375 889.693359375 247.255859375 875.756835938 264.443359375 850.129882812 c 2
 450.676757812 572.4453125 l 1
 634.1796875 849.67578125 l 2
 651.319335938 875.5703125 680.388671875 889.697265625 709.787109375 889.697265625 c 0
 726.798828125 889.697265625 743.919921875 884.966796875 758.904296875 875.048828125 c 0
 784.797851562 857.909179688 798.92578125 828.83984375 798.92578125 799.44140625 c 0
 798.92578125 782.4296875 794.1953125 765.307617188 784.27734375 750.32421875 c 2
 559.315429688 410.458007812 l 1
 800.974609375 50.1298828125 l 2
 811.092773438 35.0439453125 815.921875 17.7412109375 815.921875 0.5458984375 c 0
 815.921875 -28.6630859375 801.985351562 -57.5595703125 776.358398438 -74.74609375 c 0
 761.271484375 -84.8642578125 743.96875 -89.693359375 726.774414062 -89.693359375 c 0
 697.565429688 -89.693359375 668.668945312 -75.7568359375 651.482421875 -50.1298828125 c 2
 451.66015625 247.81640625 l 1
 254.74609375 -49.67578125 l 2
 237.606445312 -75.5703125 208.536132812 -89.697265625 179.137695312 -89.697265625 c 0
 162.126953125 -89.697265625 145.004882812 -84.966796875 130.021484375 -75.048828125 c 0xa0
EndSplineSet
Validated: 1
EndChar

StartChar: Y
Encoding: 89 89 37
Width: 905
VWidth: 0
Flags: W
HStem: -90 21G<426.545 475.622> -90 21G<426.545 475.622> 869.687 20G<170.365 193.56 712.331 735.526> 869.687 20G<170.365 193.56 712.331 735.526>
VStem: 361.219 179.998<-57.168 375.782>
LayerCount: 2
Fore
SplineSet
128.536132812 874.051757812 m 0xa8
 143.84765625 884.627929688 161.560546875 889.686523438 179.169921875 889.686523438 c 0
 207.950195312 889.686523438 236.453125 876.173828125 253.73828125 851.150390625 c 2
 453.145507812 562.461914062 l 1
 652.119140625 851.083007812 l 2
 669.3984375 876.146484375 697.926757812 889.686523438 726.735351562 889.686523438 c 0
 744.317382812 889.686523438 762.00390625 884.643554688 777.30078125 874.098632812 c 0
 802.364257812 856.819335938 815.904296875 828.290039062 815.904296875 799.481445312 c 0
 815.904296875 781.899414062 810.861328125 764.213867188 800.315429688 748.916992188 c 2
 543.079101562 375.782226562 l 1
 541.216796875 -0.4453125 l 2
 540.974609375 -49.3212890625 500.037109375 -90 451.20703125 -90 c 0
 401.8828125 -90 360.975585938 -48.66015625 361.21875 0.4453125 c 2
 363.079101562 376.139648438 l 1
 105.634765625 748.849609375 l 2
 95.05859375 764.161132812 90 781.874023438 90 799.483398438 c 0
 90 828.263671875 103.512695312 856.766601562 128.536132812 874.051757812 c 0xa8
EndSplineSet
Validated: 33
EndChar

StartChar: Z
Encoding: 90 90 38
Width: 901
VWidth: 0
Flags: W
HStem: -90 180<327.415 778.495> 710 180<136.567 550.988>
LayerCount: 2
Fore
SplineSet
103.53125 800 m 0
 103.53125 849.021484375 144.509765625 890 193.53125 890 c 2
 695.53125 890 l 2
 750.008789062 890 785.53125 838.627929688 785.53125 800 c 2
 785.53125 757 l 2
 785.53125 738.083984375 777.94140625 717.46484375 768.638671875 704.508789062 c 2
 327.415039062 90 l 1
 721.53125 90 l 2
 770.552734375 90 811.53125 49.021484375 811.53125 0 c 0
 811.53125 -49.021484375 770.552734375 -90 721.53125 -90 c 2
 180 -90 l 2
 141.372070312 -90 90 -54.4775390625 90 0 c 2
 90 39 l 2
 90 54.9501953125 95.8603515625 76.126953125 106.892578125 91.4912109375 c 2
 550.98828125 710 l 1
 193.53125 710 l 2
 144.509765625 710 103.53125 750.978515625 103.53125 800 c 0
EndSplineSet
Validated: 1
EndChar

StartChar: a
Encoding: 97 97 39
Width: 937
VWidth: 0
Flags: W
HStem: -89.8779 21G<174.522 198.012 739.745 763.235> -89.8779 21G<174.522 198.012 739.745 763.235> 184 180<397.225 540.531> 870 20G<431.931 508.857> 870 20G<431.931 508.857>
LayerCount: 2
Fore
SplineSet
151.194335938 -85.306640625 m 0xb0
 113.954101562 -72.7841796875 90 -36.9599609375 90 0.693359375 c 0
 90 10.0205078125 91.4697265625 19.458984375 94.5712890625 28.6845703125 c 2
 363.571289062 828.684570312 l 2
 376.306640625 866.55859375 414.983398438 890 448.877929688 890 c 2
 468.877929688 890 l 1
 488.877929688 890 l 2
 528.836914062 890 563.381835938 860.811523438 574.184570312 828.684570312 c 2
 843.184570312 28.6845703125 l 2
 846.287109375 19.458984375 847.756835938 10.0205078125 847.756835938 0.693359375 c 0
 847.756835938 -36.9599609375 823.802734375 -72.7841796875 786.5625 -85.306640625 c 0
 777.337890625 -88.408203125 767.8984375 -89.8779296875 758.571289062 -89.8779296875 c 0
 720.918945312 -89.8779296875 685.09375 -65.9248046875 672.571289062 -28.6845703125 c 2
 601.056640625 184 l 1
 336.700195312 184 l 1
 265.184570312 -28.6845703125 l 2
 252.663085938 -65.9248046875 216.837890625 -89.8779296875 179.185546875 -89.8779296875 c 0
 169.858398438 -89.8779296875 160.418945312 -88.408203125 151.194335938 -85.306640625 c 0xb0
540.53125 364 m 1
 468.877929688 577.095703125 l 1
 397.224609375 364 l 1
 540.53125 364 l 1
EndSplineSet
Validated: 1
EndChar

StartChar: b
Encoding: 98 98 40
Width: 877
VWidth: 0
Flags: W
HStem: -90 180<270 563.692> 338 180<270 531.184> 710 180<270 543.652>
VStem: 90 180<90 338 518 710> 579 180<563.358 679.19> 607 180<128.138 281.578>
LayerCount: 2
Fore
SplineSet
270 518 m 1xf8
 468.88671875 518 l 2
 482.171875 518.405273438 498.012695312 522.0703125 513.390625 529.1953125 c 0
 554.876953125 548.416015625 579 583.845703125 579 616 c 0
 579 670.608398438 548.115234375 710 470 710 c 2
 270 710 l 1
 270 518 l 1xf8
270 338 m 1
 270 90 l 1
 497 90 l 2
 572.112304688 90 607 134.120117188 607 212 c 0xf4
 607 281.796875 553.635742188 338.020507812 473.4765625 338.020507812 c 0
 472.586914062 338.020507812 471.694335938 338.013671875 470.797851562 338 c 2
 270 338 l 1
687.583984375 437.60546875 m 1
 749.240234375 381.572265625 787 300.473632812 787 212 c 0xf4
 787 61.8798828125 685.887695312 -90 497 -90 c 2
 180 -90 l 2
 141.372070312 -90 90 -54.4775390625 90 0 c 2
 90 428 l 1
 90 800 l 2
 90 838.627929688 125.522460938 890 180 890 c 2
 470 890 l 2
 633.884765625 890 759 773.391601562 759 616 c 0xf8
 759 545.145507812 728.962890625 482.993164062 687.583984375 437.60546875 c 1
EndSplineSet
Validated: 1
EndChar

StartChar: c
Encoding: 99 99 41
Width: 901
VWidth: 0
Flags: W
HStem: -90 180<396.579 554.636> 708 180<396.867 549.735>
VStem: 90 180<256.243 542.99>
LayerCount: 2
Fore
SplineSet
721.515625 484.616210938 m 0
 718.083007812 484.212890625 714.666992188 484.015625 711.278320312 484.015625 c 0
 666.61328125 484.015625 626.940429688 518.231445312 621.616210938 563.484375 c 0
 610.396484375 658.850585938 551.643554688 708 470 708 c 0
 357.59765625 708 270 576.375 270 400 c 0
 270 222.008789062 356.961914062 90 470 90 c 0
 558.411132812 90 617.920898438 138.666015625 631.731445312 254.641601562 c 0
 637.114257812 299.845703125 676.767578125 333.983398438 721.381835938 333.983398438 c 0
 724.810546875 333.983398438 728.268554688 333.782226562 731.7421875 333.368164062 c 0
 776.946289062 327.985351562 811.083984375 288.33203125 811.083984375 243.717773438 c 0
 811.083984375 240.2890625 810.881835938 236.83203125 810.46875 233.358398438 c 0
 788.079101562 45.333984375 655.588867188 -90 470 -90 c 0
 197.038085938 -90 90 191.991210938 90 400 c 0
 90 607.625 198.40234375 888 470 888 c 0
 644.356445312 888 779.603515625 761.149414062 800.383789062 584.515625 c 0
 800.787109375 581.083007812 800.984375 577.666992188 800.984375 574.278320312 c 0
 800.984375 529.61328125 766.76953125 489.940429688 721.515625 484.616210938 c 0
EndSplineSet
Validated: 1
EndChar

StartChar: d
Encoding: 100 100 42
Width: 883
VWidth: 0
Flags: W
HStem: -90 180<270 478.18> 710 180<270 471.088>
VStem: 90 180<90 710> 613.531 180<239.308 542.853>
LayerCount: 2
Fore
SplineSet
180 890 m 2
 365.53125 890 l 2
 673.088867188 890 793.53125 627.2265625 793.53125 400 c 0
 793.53125 177.55859375 697.405273438 -90 364 -90 c 2
 180 -90 l 2
 125.522460938 -90 90 -38.6279296875 90 0 c 2
 90 800 l 2
 90 854.477539062 141.372070312 890 180 890 c 2
270 710 m 1
 270 90 l 1
 364 90 l 2
 561.657226562 90 613.53125 212.44140625 613.53125 400 c 0
 613.53125 580.7734375 537.973632812 710 365.53125 710 c 2
 270 710 l 1
EndSplineSet
Validated: 1
EndChar

StartChar: e
Encoding: 101 101 43
Width: 877
VWidth: 0
Flags: W
HStem: -90 180<270 754.495> 330 180<270 582.495> 710 180<270 724.495>
VStem: 90 180<90 330 510 710>
LayerCount: 2
Fore
SplineSet
757.53125 800 m 0
 757.53125 750.978515625 716.552734375 710 667.53125 710 c 2
 270 710 l 1
 270 510 l 1
 525.53125 510 l 2
 574.552734375 510 615.53125 469.021484375 615.53125 420 c 0
 615.53125 370.978515625 574.552734375 330 525.53125 330 c 2
 270 330 l 1
 270 90 l 1
 697.53125 90 l 2
 746.552734375 90 787.53125 49.021484375 787.53125 0 c 0
 787.53125 -49.021484375 746.552734375 -90 697.53125 -90 c 2
 180 -90 l 2
 141.372070312 -90 90 -54.4775390625 90 0 c 2
 90 800 l 2
 90 838.627929688 125.522460938 890 180 890 c 2
 667.53125 890 l 2
 716.552734375 890 757.53125 849.021484375 757.53125 800 c 0
EndSplineSet
Validated: 1
EndChar

StartChar: f
Encoding: 102 102 44
Width: 843
VWidth: 0
Flags: W
HStem: -90 21G<155.489 204.511> -90 21G<155.489 204.511> 328 180<270 574.495> 710 180<270 720.495>
VStem: 90 180<-56.9642 328 508 710>
LayerCount: 2
Fore
SplineSet
753.53125 800 m 0xb8
 753.53125 750.978515625 712.552734375 710 663.53125 710 c 2
 270 710 l 1
 270 508 l 1
 517.53125 508 l 2
 566.552734375 508 607.53125 467.021484375 607.53125 418 c 0
 607.53125 368.978515625 566.552734375 328 517.53125 328 c 2
 270 328 l 1
 270 0 l 2
 270 -49.021484375 229.021484375 -90 180 -90 c 0
 130.978515625 -90 90 -49.021484375 90 0 c 2
 90 800 l 2
 90 838.627929688 125.522460938 890 180 890 c 2
 663.53125 890 l 2
 712.552734375 890 753.53125 849.021484375 753.53125 800 c 0xb8
EndSplineSet
Validated: 1
EndChar

StartChar: g
Encoding: 103 103 45
Width: 871
VWidth: 0
Flags: W
HStem: -90 180<392.314 561.709> 242 180<434.569 601.533> 710 180<388.829 530.029>
VStem: 90.002 180.001<258.187 549.595> 601.533 180<127.893 242 540.92 642.393>
LayerCount: 2
Fore
SplineSet
699.831054688 508.383789062 m 0
 697.122070312 508.1328125 694.426757812 508.009765625 691.75 508.009765625 c 0
 646.193359375 508.009765625 606.185546875 543.598632812 601.916992188 589.702148438 c 0
 596.736328125 645.646484375 532.1875 710 453.533203125 710 c 0
 349.18359375 710 269.555664062 580.349609375 270.002929688 400.000976562 c 0
 269.565429688 222.044921875 355.09765625 90 464.533203125 90 c 0
 540.310546875 90 567.97265625 102.6171875 601.533203125 158.780273438 c 1
 601.533203125 242 l 1
 491.533203125 242 l 2
 442.51171875 242 401.533203125 282.978515625 401.533203125 332 c 0
 401.533203125 381.021484375 442.51171875 422 491.533203125 422 c 2
 691.533203125 422 l 2
 730.161132812 422 781.533203125 386.477539062 781.533203125 332 c 2
 781.533203125 136 l 2
 781.533203125 123.01171875 778.25 108.186523438 772.032226562 95.7509765625 c 0
 705.010742188 -38.2919921875 590.314453125 -90 464.533203125 -90 c 0
 191.969726562 -90 89.5009765625 195.955078125 90.001953125 399.999023438 c 0
 89.51171875 597.650390625 179.883789062 890 453.533203125 890 c 0
 618.879882812 890 766.330078125 766.353515625 781.150390625 606.297851562 c 0
 781.401367188 603.588867188 781.5234375 600.892578125 781.5234375 598.215820312 c 0
 781.5234375 552.66015625 745.935546875 512.65234375 699.831054688 508.383789062 c 0
EndSplineSet
Validated: 33
EndChar

StartChar: h
Encoding: 104 104 46
Width: 873
VWidth: 0
Flags: W
HStem: -90 21G<155.489 204.511 669.021 718.042> -90 21G<155.489 204.511 669.021 718.042> 330 180<270 603.531> 870 20G<155.489 204.511 669.021 718.042> 870 20G<155.489 204.511 669.021 718.042>
VStem: 90 180<-56.9642 330 510 856.964> 603.531 180<-56.9642 330 510 856.964>
LayerCount: 2
Fore
SplineSet
180 890 m 0xb6
 229.021484375 890 270 849.021484375 270 800 c 2
 270 510 l 1
 603.53125 510 l 1
 603.53125 800 l 2
 603.53125 849.021484375 644.509765625 890 693.53125 890 c 0
 742.552734375 890 783.53125 849.021484375 783.53125 800 c 2
 783.53125 0 l 2
 783.53125 -49.021484375 742.552734375 -90 693.53125 -90 c 0
 644.509765625 -90 603.53125 -49.021484375 603.53125 0 c 2
 603.53125 330 l 1
 270 330 l 1
 270 0 l 2
 270 -49.021484375 229.021484375 -90 180 -90 c 0
 130.978515625 -90 90 -49.021484375 90 0 c 2
 90 420 l 1
 90 800 l 2
 90 849.021484375 130.978515625 890 180 890 c 0xb6
EndSplineSet
Validated: 1
EndChar

StartChar: i
Encoding: 105 105 47
Width: 360
VWidth: 0
Flags: W
HStem: -90 21G<155.597 204.618> -90 21G<155.597 204.618> 870 20G<155.489 204.511> 870 20G<155.489 204.511>
VStem: 90.0996 180<-56.9604 856.964>
LayerCount: 2
Fore
SplineSet
180 890 m 0xa8
 229.021484375 890 270 849.021484375 270 800 c 0
 270 533.322265625 270.049804688 266.65625 270.099609375 0.0009765625 c 0
 270.099609375 -49.01953125 229.134765625 -89.9912109375 180.100585938 -90 c 0
 131.09375 -90 90.1181640625 -49.0439453125 90.099609375 -0.0341796875 c 0
 90 266.701171875 90 533.333007812 90 800 c 0
 90 849.021484375 130.978515625 890 180 890 c 0xa8
EndSplineSet
Validated: 1
EndChar

StartChar: j
Encoding: 106 106 48
Width: 759
VWidth: 0
Flags: W
HStem: -90 180<308.852 457.36> 870 20G<554.92 603.942> 870 20G<554.92 603.942>
VStem: 90 180<130.968 312.888> 489.432 180<124.022 856.964>
LayerCount: 2
Fore
SplineSet
579.431640625 890 m 0xd8
 628.453125 890 669.431640625 849.021484375 669.431640625 800 c 2
 669.431640625 256 l 2
 669.431640625 47.2177734375 565.952148438 -90 383.431640625 -90 c 0
 199.633789062 -90 90 50.0966796875 90 255.72265625 c 0
 90 304.956054688 130.8203125 346 180.000976562 346 c 0
 229.041015625 345.986328125 270 305.018554688 270 255.999023438 c 0
 269.958984375 109.784179688 311.271484375 90 383.431640625 90 c 0
 452.91015625 90 489.431640625 100.782226562 489.431640625 256 c 2
 489.431640625 800 l 2
 489.431640625 849.021484375 530.409179688 890 579.431640625 890 c 0xd8
EndSplineSet
Validated: 33
EndChar

StartChar: k
Encoding: 107 107 49
Width: 863
VWidth: 0
Flags: W
HStem: -90 21.3086G<155.553 204.574 669.604 692.803> -90 21.3086G<155.553 204.574 669.604 692.803> 870 20G<155.553 204.574 663.75 686.905> 870 20G<155.553 204.574 663.75 686.905>
VStem: 90.0635 180<-56.9642 246.349 506.614 856.964>
LayerCount: 2
Fore
SplineSet
180.063476562 890 m 0xa8
 229.084960938 890 270.063476562 849.021484375 270.063476562 800 c 2
 270.063476562 506.614257812 l 1
 610.58984375 862.244140625 l 2
 628.032226562 880.4609375 651.837890625 889.637695312 675.663085938 889.637695312 c 0
 698.146484375 889.637695312 720.6484375 881.465820312 737.838867188 865.004882812 c 0
 756.055664062 847.5625 765.232421875 823.756835938 765.232421875 799.931640625 c 0
 765.232421875 777.448242188 757.059570312 754.946289062 740.599609375 737.755859375 c 2
 478.049804688 463.560546875 l 1
 758.087890625 50.50390625 l 2
 768.373046875 35.3349609375 773.28515625 17.8818359375 773.28515625 0.53515625 c 0
 773.28515625 -28.5166015625 759.504882812 -57.26953125 734.098632812 -74.494140625 c 0
 718.9296875 -84.7783203125 701.4765625 -89.69140625 684.129882812 -89.69140625 c 0
 655.078125 -89.69140625 626.325195312 -75.91015625 609.100585938 -50.50390625 c 2
 350.729492188 330.592773438 l 1
 270.063476562 246.348632812 l 1
 270.063476562 0 l 2
 270.063476562 -49.021484375 229.084960938 -90 180.063476562 -90 c 0
 131.041992188 -90 90.0634765625 -49.021484375 90.0634765625 0 c 2
 90.0634765625 277.619140625 l 2
 89.9208984375 280.58203125 90.0634765625 283.552734375 90.0634765625 286.517578125 c 2
 90.0634765625 800 l 2
 90.0634765625 849.021484375 131.041992188 890 180.063476562 890 c 0xa8
EndSplineSet
Validated: 1
EndChar

StartChar: l
Encoding: 108 108 50
Width: 879
VWidth: 0
Flags: W
HStem: -90 180<270 756.495> 870 20G<155.489 204.511> 870 20G<155.489 204.511>
VStem: 90 180<90 856.964>
LayerCount: 2
Fore
SplineSet
180 890 m 0xd0
 229.021484375 890 270 849.021484375 270 800 c 2
 270 90 l 1
 699.53125 90 l 2
 748.552734375 90 789.53125 49.021484375 789.53125 0 c 0
 789.53125 -49.021484375 748.552734375 -90 699.53125 -90 c 2
 180 -90 l 2
 141.372070312 -90 90 -54.4775390625 90 0 c 2
 90 800 l 2
 90 849.021484375 130.978515625 890 180 890 c 0xd0
EndSplineSet
Validated: 1
EndChar

StartChar: m
Encoding: 109 109 51
Width: 993
VWidth: 0
Flags: W
HStem: -90 21G<155.489 204.511 789.021 838.042> -90 21G<155.489 204.511 789.021 838.042> 870 20G<160.686 241.509 760.977 840.77> 870 20G<160.686 241.509 760.977 840.77>
VStem: 90 180<-56.9642 374.105> 723.531 180<-56.9642 367.005>
LayerCount: 2
Fore
SplineSet
180 -90 m 0xac
 130.978515625 -90 90 -49.021484375 90 0 c 2
 90 800 l 2
 90 854.477539062 141.372070312 890 180 890 c 2
 200.258789062 890 l 1
 221.53125 890 l 2
 261.487304688 890 296.021484375 860.798828125 306.82421875 828.725585938 c 2
 497.33203125 263.063476562 l 1
 692.440429688 829.318359375 l 2
 705.443359375 867.055664062 744.421875 890 777.53125 890 c 2
 795.53125 890 l 1
 813.53125 890 l 2
 868.008789062 890 903.53125 838.627929688 903.53125 800 c 2
 903.53125 0 l 2
 903.53125 -49.021484375 862.552734375 -90 813.53125 -90 c 0
 764.509765625 -90 723.53125 -49.021484375 723.53125 0 c 2
 723.53125 367.004882812 l 1
 596.622070312 -1.318359375 l 2
 585.8359375 -32.6220703125 551.4453125 -62 511.53125 -62 c 2
 496.53125 -62 l 1
 481.53125 -62 l 2
 447.6875 -62 408.991210938 -38.5908203125 396.23828125 -0.7255859375 c 2
 270 374.10546875 l 1
 270 0 l 2
 270 -49.021484375 229.021484375 -90 180 -90 c 0xac
EndSplineSet
Validated: 1
EndChar

StartChar: n
Encoding: 110 110 52
Width: 869
VWidth: 0
Flags: W
HStem: -90 21G<155.489 204.511 640.917 716.733> -90 21G<155.489 204.511 640.917 716.733> 870 20G<160.686 236.385 662.939 711.989> 870 20G<160.686 236.385 662.939 711.989>
VStem: 90 180<-56.9642 519.326> 598.803 180.729<292.16 857.156>
LayerCount: 2
Fore
SplineSet
180 -90 m 0xac
 130.978515625 -90 90 -49.021484375 90 0 c 2
 90 800 l 2
 90 854.477539062 141.372070312 890 180 890 c 2
 196.217773438 890 l 1
 219.53125 890 l 2
 253.239257812 890 284.569335938 868.733398438 298.556640625 843.069335938 c 2
 598.802734375 292.16015625 l 1
 597.53125 801.775390625 l 2
 597.409179688 850.885742188 638.352539062 891.938476562 687.526367188 892 c 0
 736.451171875 892 777.409179688 851.172851562 777.53125 802.224609375 c 2
 779.53125 0.224609375 l 2
 779.627929688 -38.818359375 743.935546875 -90 689.53125 -90 c 2
 674.53125 -90 l 1
 655.53125 -90 l 2
 626.302734375 -90 592.63671875 -72.6669921875 576.505859375 -43.0693359375 c 2
 270 519.326171875 l 1
 270 0 l 2
 270 -49.021484375 229.021484375 -90 180 -90 c 0xac
EndSplineSet
Validated: 33
EndChar

StartChar: o
Encoding: 111 111 53
Width: 938
VWidth: 0
Flags: W
HStem: -90 180<396.578 542.876> 711 180<397.498 543.749>
VStem: 90 180<256.242 543.921> 668 180<256.65 543.53>
LayerCount: 2
Fore
SplineSet
471 891 m 0
 744.126953125 891 848 605.713867188 848 400 c 0
 848 193.642578125 742.625976562 -90 470 -90 c 0
 197.047851562 -90 90 192.001953125 90 400 c 0
 90 608.21875 198.021484375 891 471 891 c 0
471 711 m 0
 357.978515625 711 270 577.78125 270 400 c 0
 270 221.998046875 356.952148438 90 470 90 c 0
 581.374023438 90 668 222.357421875 668 400 c 0
 668 578.286132812 581.873046875 711 471 711 c 0
EndSplineSet
Validated: 1
EndChar

StartChar: p
Encoding: 112 112 54
Width: 843
VWidth: 0
Flags: W
HStem: -90 21G<155.489 204.511> -90 21G<155.489 204.511> 280 180<270 514.497> 710 180<270 526.215>
VStem: 90 180<-56.9642 280 460 710> 573.531 180<516.471 663.023>
LayerCount: 2
Fore
SplineSet
270 460 m 1x3c
 439.53125 460 l 2
 516.625976562 460 573.53125 516.23828125 573.53125 580 c 0
 573.53125 659.983398438 537.51171875 710 439.53125 710 c 2
 270 710 l 1
 270 460 l 1x3c
270 280 m 1
 270 0 l 2
 270 -49.021484375 229.021484375 -90 180 -90 c 0xbc
 130.978515625 -90 90 -49.021484375 90 0 c 2
 90 370 l 1
 90 800 l 2
 90 854.477539062 141.372070312 890 180 890 c 2
 439.53125 890 l 2
 637.55078125 890 753.53125 744.016601562 753.53125 580 c 0
 753.53125 403.76171875 602.436523438 280 439.53125 280 c 2
 270 280 l 1
EndSplineSet
Validated: 1
EndChar

StartChar: q
Encoding: 113 113 55
Width: 1008
VWidth: 0
Flags: W
HStem: -90 21G<333.524 489.74> -90 21G<333.524 489.74> 711 180<397.498 543.749>
VStem: 90 180<256.373 543.921> 668 180<254.726 543.53>
LayerCount: 2
Fore
SplineSet
471 891 m 0xb8
 744.126953125 891 848 605.713867188 848 400 c 0
 848 282.77734375 813.997070312 140.616210938 734.649414062 39.67578125 c 1
 734.766601562 39.6650390625 734.885742188 39.654296875 735.00390625 39.6435546875 c 0
 739.162109375 39.2724609375 742.637695312 39.1982421875 743.931640625 39.216796875 c 0
 746.887695312 41.8994140625 751.325195312 46.5673828125 757.962890625 55.1318359375 c 0
 775.501953125 77.7626953125 802.409179688 89.662109375 829.479492188 89.662109375 c 0
 848.755859375 89.662109375 868.115234375 83.6279296875 884.231445312 71.1376953125 c 0
 906.862304688 53.5986328125 918.76171875 26.6904296875 918.76171875 -0.37890625 c 0
 918.76171875 -19.65625 912.727539062 -39.015625 900.237304688 -55.1318359375 c 0
 877.473632812 -84.50390625 849.590820312 -113.439453125 809.22265625 -129.099609375 c 0
 786.249023438 -138.01171875 763.610351562 -140.771484375 742.95703125 -140.771484375 c 0
 734.609375 -140.771484375 726.5859375 -140.321289062 718.99609375 -139.643554688 c 0
 654.467773438 -133.881835938 610.025390625 -106.916992188 578.106445312 -73.2509765625 c 1
 545.453125 -84.0517578125 509.48046875 -90 470 -90 c 0
 197.047851562 -90 90 192.001953125 90 400 c 0
 90 608.21875 198.021484375 891 471 891 c 0xb8
471 711 m 0
 357.978515625 711 270 577.78125 270 400 c 0
 270 259.37109375 324.272460938 147.455078125 402.809570312 106.66015625 c 1
 388.670898438 122.603515625 380 143.455078125 380 166.002929688 c 0
 380.037109375 215.739257812 421.720703125 255.240234375 469.349609375 256.000976562 c 2
 469.349609375 256.000976562 471.354492188 256.068359375 474.836914062 256.068359375 c 0
 484.561523438 256.068359375 505.807617188 255.541992188 527.114257812 251.546875 c 0
 558.826171875 245.950195312 584.255859375 234.426757812 586.298828125 233.61328125 c 0
 601.680664062 227.487304688 616.462890625 215.084960938 625.243164062 203.615234375 c 1
 652.130859375 256.229492188 668 323.966796875 668 400 c 1
 668 578.286132812 581.873046875 711 471 711 c 0
EndSplineSet
Validated: 1
EndChar

StartChar: r
Encoding: 114 114 56
Width: 883
VWidth: 0
Flags: W
HStem: -90 21G<155.489 204.511 681.201 704.531> -90 21G<155.489 204.511 681.201 704.531> 328 180<270 446.337> 710 180<270 568.338>
VStem: 90 180<-56.9642 328 508 710> 613.531 180<-49.418 -37.8418 559.426 669.883>
LayerCount: 2
Fore
SplineSet
270 508 m 1x3c
 485.53125 508 l 2
 549.736328125 508 613.53125 563.657226562 613.53125 608 c 0
 613.53125 664.057617188 575.702148438 710 485.53125 710 c 2
 270 710 l 1
 270 508 l 1x3c
270 328 m 1
 270 0 l 2
 270 -49.021484375 229.021484375 -90 180 -90 c 0xbc
 130.978515625 -90 90 -49.021484375 90 0 c 2
 90 418 l 1
 90 800 l 2
 90 854.477539062 141.372070312 890 180 890 c 2
 485.53125 890 l 2
 651.360351562 890 793.53125 777.942382812 793.53125 608 c 0
 793.53125 489.014648438 717.935546875 405.7734375 628.73828125 362.499023438 c 1
 779.189453125 37.841796875 l 2
 784.719726562 25.908203125 787.330078125 13.2587890625 787.330078125 0.740234375 c 0
 787.330078125 -33.400390625 767.916992188 -66.576171875 735.373046875 -81.658203125 c 0
 723.439453125 -87.1884765625 710.790039062 -89.798828125 698.271484375 -89.798828125 c 0
 664.130859375 -89.798828125 630.955078125 -70.3857421875 615.873046875 -37.841796875 c 2
 446.336914062 328 l 1
 270 328 l 1
EndSplineSet
Validated: 1
EndChar

StartChar: s
Encoding: 115 115 57
Width: 907
VWidth: 0
Flags: W
HStem: -90 180<341.988 559.26> 330.044 179.912<350.742 557.242> 710 180<349.438 545.485>
VStem: 107.387 180<560.07 658.207> 637.387 180<158.77 265.845>
LayerCount: 2
Fore
SplineSet
714.442382812 529.557617188 m 0
 706.342773438 527.209960938 698.133789062 526.09375 690.0234375 526.09375 c 0
 650.990234375 526.09375 614.244140625 551.9609375 602.944335938 590.944335938 c 0
 573.83984375 691.35546875 534.573242188 710 443.38671875 710 c 0
 345.733398438 710 287.38671875 655.143554688 287.38671875 606 c 0
 287.38671875 561.81640625 338 513.586914062 454.198242188 509.956054688 c 0
 600.274414062 505.390625 817.38671875 429.639648438 817.38671875 216 c 0
 817.38671875 14.0068359375 626.020507812 -90 464.38671875 -90 c 0
 301.046875 -90 134.609375 -17.8359375 91.646484375 200.633789062 c 0
 90.53515625 206.288085938 90 211.942382812 90 217.534179688 c 0
 90 259.51171875 120.142578125 297.9609375 162.588867188 306.30859375 c 0
 168.243164062 307.420898438 173.897460938 307.955078125 179.489257812 307.955078125 c 0
 221.467773438 307.955078125 259.916992188 277.8125 268.263671875 235.366210938 c 0
 292.1640625 113.8359375 347.7265625 90 464.38671875 90 c 0
 568.752929688 90 637.38671875 151.993164062 637.38671875 216 c 0
 637.38671875 270.360351562 569.987304688 326.25 448.575195312 330.043945312 c 0
 308.7734375 334.413085938 107.38671875 404.18359375 107.38671875 606 c 0
 107.38671875 800.856445312 297.040039062 890 443.38671875 890 c 0
 592.200195312 890 724.93359375 816.64453125 775.829101562 641.055664062 c 0
 778.176757812 632.956054688 779.29296875 624.747070312 779.29296875 616.63671875 c 0
 779.29296875 577.603515625 753.42578125 540.857421875 714.442382812 529.557617188 c 0
EndSplineSet
Validated: 1
EndChar

StartChar: t
Encoding: 116 116 58
Width: 953
VWidth: 0
Flags: W
HStem: -90 21G<453.021 502.042> -90 21G<453.021 502.042> 710 180<123.036 387.531 567.531 830.495>
VStem: 387.531 180<-56.9642 710>
LayerCount: 2
Fore
SplineSet
90 800 m 0xb0
 90 849.021484375 130.978515625 890 180 890 c 2
 773.53125 890 l 2
 822.552734375 890 863.53125 849.021484375 863.53125 800 c 0
 863.53125 750.978515625 822.552734375 710 773.53125 710 c 2
 567.53125 710 l 1
 567.53125 0 l 2
 567.53125 -49.021484375 526.552734375 -90 477.53125 -90 c 0
 428.509765625 -90 387.53125 -49.021484375 387.53125 0 c 2
 387.53125 710 l 1
 180 710 l 2
 130.978515625 710 90 750.978515625 90 800 c 0xb0
EndSplineSet
Validated: 1
EndChar

StartChar: u
Encoding: 117 117 59
Width: 876
VWidth: 0
Flags: W
HStem: -90 180<348.651 529.829> 870 20G<160.134 184.608 671.501 720.523> 870 20G<160.134 184.608 671.501 720.523>
VStem: 90 180.027<159.295 851.244> 606.013 180<159.848 856.964>
LayerCount: 2
Fore
SplineSet
185.165039062 889.997070312 m 0xd8
 234.185546875 889.625 274.850585938 848.3359375 274.478515625 799.31640625 c 2
 270.02734375 213.576171875 l 2
 273.329101562 152.84375 341.255859375 90 436.012695312 90 c 0
 538.43359375 90 606.89453125 155.6875 606.012695312 211.286132812 c 2
 606.012695312 800 l 2
 606.012695312 849.021484375 646.990234375 890 696.012695312 890 c 0
 745.034179688 890 786.012695312 849.021484375 786.012695312 800 c 2
 786.012695312 212.69140625 l 2
 788.163085938 16.3134765625 596.31640625 -90 436.012695312 -90 c 0
 271.8046875 -90 96.86328125 20.26953125 90 210.720703125 c 1
 94.4833984375 800.68359375 l 2
 94.8544921875 849.481445312 135.770507812 890 184.497070312 890 c 0
 184.719726562 890 184.942382812 889.999023438 185.165039062 889.997070312 c 0xd8
EndSplineSet
Validated: 33
EndChar

StartChar: v
Encoding: 118 118 60
Width: 932
VWidth: 0
Flags: W
HStem: -90 21G<419.778 499.384> -90 21G<419.778 499.384> 869.887 20G<174.732 198.246 734.363 757.845> 869.887 20G<174.732 198.246 734.363 757.845>
LayerCount: 2
Fore
SplineSet
152.30859375 885.670898438 m 0xa0
 161.193359375 888.530273438 170.255859375 889.88671875 179.208984375 889.88671875 c 0
 217.282226562 889.88671875 253.396484375 865.357421875 265.557617188 827.578125 c 2
 460.296875 222.63671875 l 1
 667.241210938 829.06640625 l 2
 679.885742188 866.119140625 715.609375 889.875 753.116210938 889.875 c 0
 762.573242188 889.875 772.142578125 888.365234375 781.485351562 885.176757812 c 0
 818.538085938 872.533203125 842.293945312 836.809570312 842.293945312 799.301757812 c 0
 842.293945312 789.845703125 840.783203125 780.275390625 837.595703125 770.93359375 c 2
 564.595703125 -29.06640625 l 2
 553.801757812 -60.6962890625 519.350585938 -90 479.41796875 -90 c 2
 458.41796875 -90 l 1
 437.41796875 -90 l 2
 402.138671875 -90 364.009765625 -65.669921875 351.748046875 -27.578125 c 2
 94.216796875 772.421875 l 2
 91.3564453125 781.305664062 90 790.368164062 90 799.322265625 c 0
 90 837.395507812 114.530273438 873.508789062 152.30859375 885.670898438 c 0xa0
EndSplineSet
Validated: 1
EndChar

StartChar: w
Encoding: 119 119 61
Width: 1152
VWidth: 0
Flags: W
HStem: -90 21G<346.662 422.666 740.386 817.739> -90 21G<346.662 422.666 740.386 817.739> 869.938 20G<176.113 199.807 952.375 976.1> 869.938 20G<176.113 199.807 952.375 976.1>
VStem: 90 177.6<790.274 857.653> 884.571 177.843<787.52 857.102>
LayerCount: 2
Fore
SplineSet
159.556640625 887.662109375 m 0xac
 166.177734375 889.201171875 172.827148438 889.938476562 179.3984375 889.938476562 c 0
 220.215820312 889.938476562 258.038085938 861.5078125 267.599609375 820.381835938 c 2
 378.702148438 342.5234375 l 1
 467.244140625 781.783203125 l 2
 475.620117188 823.33984375 513.276367188 854 555.469726562 854 c 2
 573.469726562 854 l 1
 593.469726562 854 l 2
 635.999023438 854 672.81640625 822.459960938 681.393554688 783.21875 c 2
 778.694335938 338.080078125 l 1
 884.571289062 819.337890625 l 2
 893.720703125 860.926757812 931.766601562 889.944335938 972.984375 889.944335938 c 0
 979.215820312 889.944335938 985.51953125 889.28125 991.806640625 887.8984375 c 0
 1033.39648438 878.748046875 1062.4140625 840.703125 1062.4140625 799.485351562 c 0
 1062.4140625 793.25390625 1061.75097656 786.950195312 1060.3671875 780.662109375 c 2
 884.3671875 -19.337890625 l 2
 875.772460938 -58.4052734375 839.0078125 -90 796.469726562 -90 c 2
 778.469726562 -90 l 1
 760.469726562 -90 l 2
 720.301757812 -90 681.626953125 -60.767578125 672.545898438 -19.21875 c 2
 577.266601562 416.665039062 l 1
 489.6953125 -17.783203125 l 2
 481.357421875 -59.1455078125 443.861328125 -90 401.469726562 -90 c 2
 384.2109375 -90 l 1
 365.938476562 -90 l 2
 327.384765625 -90 287.924804688 -61.880859375 278.276367188 -20.3818359375 c 2
 92.2763671875 779.618164062 l 2
 90.7373046875 786.240234375 90 792.888671875 90 799.459960938 c 0
 90 840.27734375 118.4296875 878.099609375 159.556640625 887.662109375 c 0xac
EndSplineSet
Validated: 1
EndChar

StartChar: x
Encoding: 120 120 62
Width: 905
VWidth: 0
Flags: W
HStem: -89.6973 21G<170.632 193.837 712.17 735.372> -89.6973 21G<170.632 193.837 712.17 735.372> 869.693 20G<180.553 203.755 695.088 718.293> 869.693 20G<180.553 203.755 695.088 718.293>
LayerCount: 2
Fore
SplineSet
130.021484375 -75.048828125 m 0xa0
 104.126953125 -57.9091796875 90 -28.83984375 90 0.55859375 c 0
 90 17.5703125 94.73046875 34.6923828125 104.6484375 49.67578125 c 2
 343.021484375 409.802734375 l 1
 114.951171875 749.870117188 l 2
 104.833007812 764.956054688 100.002929688 782.258789062 100.002929688 799.454101562 c 0
 100.002929688 828.663085938 113.940429688 857.559570312 139.567382812 874.74609375 c 0
 154.653320312 884.864257812 171.956054688 889.693359375 189.150390625 889.693359375 c 0
 218.359375 889.693359375 247.255859375 875.756835938 264.443359375 850.129882812 c 2
 450.676757812 572.4453125 l 1
 634.1796875 849.67578125 l 2
 651.319335938 875.5703125 680.388671875 889.697265625 709.787109375 889.697265625 c 0
 726.798828125 889.697265625 743.919921875 884.966796875 758.904296875 875.048828125 c 0
 784.797851562 857.909179688 798.92578125 828.83984375 798.92578125 799.44140625 c 0
 798.92578125 782.4296875 794.1953125 765.307617188 784.27734375 750.32421875 c 2
 559.315429688 410.458007812 l 1
 800.974609375 50.1298828125 l 2
 811.092773438 35.0439453125 815.921875 17.7412109375 815.921875 0.5458984375 c 0
 815.921875 -28.6630859375 801.985351562 -57.5595703125 776.358398438 -74.74609375 c 0
 761.271484375 -84.8642578125 743.96875 -89.693359375 726.774414062 -89.693359375 c 0
 697.565429688 -89.693359375 668.668945312 -75.7568359375 651.482421875 -50.1298828125 c 2
 451.66015625 247.81640625 l 1
 254.74609375 -49.67578125 l 2
 237.606445312 -75.5703125 208.536132812 -89.697265625 179.137695312 -89.697265625 c 0
 162.126953125 -89.697265625 145.004882812 -84.966796875 130.021484375 -75.048828125 c 0xa0
EndSplineSet
Validated: 1
EndChar

StartChar: y
Encoding: 121 121 63
Width: 905
VWidth: 0
Flags: W
HStem: -90 21G<426.545 475.622> -90 21G<426.545 475.622> 869.687 20G<170.365 193.56 712.331 735.526> 869.687 20G<170.365 193.56 712.331 735.526>
VStem: 361.219 179.998<-57.168 375.782>
LayerCount: 2
Fore
SplineSet
128.536132812 874.051757812 m 0xa8
 143.84765625 884.627929688 161.560546875 889.686523438 179.169921875 889.686523438 c 0
 207.950195312 889.686523438 236.453125 876.173828125 253.73828125 851.150390625 c 2
 453.145507812 562.461914062 l 1
 652.119140625 851.083007812 l 2
 669.3984375 876.146484375 697.926757812 889.686523438 726.735351562 889.686523438 c 0
 744.317382812 889.686523438 762.00390625 884.643554688 777.30078125 874.098632812 c 0
 802.364257812 856.819335938 815.904296875 828.290039062 815.904296875 799.481445312 c 0
 815.904296875 781.899414062 810.861328125 764.213867188 800.315429688 748.916992188 c 2
 543.079101562 375.782226562 l 1
 541.216796875 -0.4453125 l 2
 540.974609375 -49.3212890625 500.037109375 -90 451.20703125 -90 c 0
 401.8828125 -90 360.975585938 -48.66015625 361.21875 0.4453125 c 2
 363.079101562 376.139648438 l 1
 105.634765625 748.849609375 l 2
 95.05859375 764.161132812 90 781.874023438 90 799.483398438 c 0
 90 828.263671875 103.512695312 856.766601562 128.536132812 874.051757812 c 0xa8
EndSplineSet
Validated: 33
EndChar

StartChar: z
Encoding: 122 122 64
Width: 901
VWidth: 0
Flags: W
HStem: -90 180<327.415 778.495> 710 180<136.567 550.988>
LayerCount: 2
Fore
SplineSet
103.53125 800 m 0
 103.53125 849.021484375 144.509765625 890 193.53125 890 c 2
 695.53125 890 l 2
 750.008789062 890 785.53125 838.627929688 785.53125 800 c 2
 785.53125 757 l 2
 785.53125 738.083984375 777.94140625 717.46484375 768.638671875 704.508789062 c 2
 327.415039062 90 l 1
 721.53125 90 l 2
 770.552734375 90 811.53125 49.021484375 811.53125 0 c 0
 811.53125 -49.021484375 770.552734375 -90 721.53125 -90 c 2
 180 -90 l 2
 141.372070312 -90 90 -54.4775390625 90 0 c 2
 90 39 l 2
 90 54.9501953125 95.8603515625 76.126953125 106.892578125 91.4912109375 c 2
 550.98828125 710 l 1
 193.53125 710 l 2
 144.509765625 710 103.53125 750.978515625 103.53125 800 c 0
EndSplineSet
Validated: 1
EndChar

